<svg id="Layer_1" data-name="Layer 1" xmlns="http://www.w3.org/2000/svg" viewBox="0 0 36 36"><defs><style>.cls-1{fill:#ca0200;}</style></defs><title>Artboard 1</title><path class="cls-1" d="M28.1,3.43h0a1.13,1.13,0,0,0-1-.21.42.42,0,0,0-.26.28c0,.16,0,.41.32.7C29.29,6,32.94,10,33.67,15.29c.63,4.68-.67,8.47-1.19,8.57,0,0-.13-.09-.21-.66l-.08-.59a26.59,26.59,0,0,0-.64-3.49,19.07,19.07,0,0,0-1-3.08A7.56,7.56,0,0,0,29.94,15a2.51,2.51,0,0,0-2.13-1.34,2.35,2.35,0,0,0-1.87,1.42,22.27,22.27,0,0,0-1.07,5.51c-.55,4.33-1.24,9.73-3.33,11.31a2.08,2.08,0,0,1-1.62.42c-1.36-.2-1.47-1.39-1.6-5.11,0-1-.08-2.14-.16-3.46-.56-9-5-11.41-6.47-12.2l-.19-.1a7.06,7.06,0,0,1,2.21.25,27.75,27.75,0,0,0,4.54.59c2.28.08,6-.27,6.79-1.6s-.3-3.53-2.73-5.35a22,22,0,0,0-1.88-1.22c-.58-.35-1.37-.82-1.39-1,0,0,.06-.11.54-.24a12.07,12.07,0,0,1,3.76-.13c.43,0,.89.12,1.29.19l.85.12c.51.05.63-.21.65-.29s0-.47-.56-.79A14.59,14.59,0,0,0,21.37.58,17.74,17.74,0,0,0,.58,14.68,17.86,17.86,0,0,0,10,34c.84.42,1.26.54,1.52.44a.41.41,0,0,0,.24-.24.48.48,0,0,0-.18-.51c-.11-.1-.3-.25-.55-.44-1.4-1.07-4.68-3.57-6.2-7.49a13.64,13.64,0,0,1-1-7.15A3.23,3.23,0,0,1,6.66,16C10.31,15.76,13,19.71,14,26.82c.91,6.33,2.33,8.66,5.46,8.91l.38,0a5.62,5.62,0,0,0,3.72-1.55c2.71-2.4,4.34-7.09,4.59-13.21,0-1.19.25-1.37.31-1.38.37.25,1.31,3.33,1.46,7.48.06,1.63.36,2.51.91,2.67s1-.22,1.58-1.11a19.76,19.76,0,0,0,3-7.2A17.66,17.66,0,0,0,28.1,3.43ZM12.34,7.56c-.06-.27.36-.69.57-.84v-.2S14.62,5,15.87,5h0c.67,0,2.38,1.1,3.66,1.94a1.78,1.78,0,0,1,.8,1.15A.57.57,0,0,1,20,8.5c-1.34.55-3.7.21-6.84-.51C12.67,7.89,12.38,7.75,12.34,7.56Z"/></svg>