<svg xmlns="http://www.w3.org/2000/svg" viewBox="0 0 1133.86 293.78"><defs><style>.cls-1,.cls-2{fill:#954b2d;}.cls-2{fill-rule:evenodd;}</style></defs><g id="Layer_2" data-name="Layer 2"><g id="Layer_1-2" data-name="Layer 1"><path class="cls-1" d="M79.46,66.09c0,13.18-.6,26.53-1.2,39.7a35.76,35.76,0,0,1,14.57,0c-.58-13.17-1.17-26.52-1.17-39.7V39.7q0-15.87.45-31.73a283.71,283.71,0,0,1,31.81,1.69,17.82,17.82,0,0,1-.75-4.76,18.91,18.91,0,0,1,.75-4.9C111.13.45,98.34.76,85.55.76S60,.45,47.19,0a18.77,18.77,0,0,1,.74,4.75,18,18,0,0,1-.74,4.91A283.84,283.84,0,0,1,79,8q.47,15.87.46,31.73V66.09Z"/><path class="cls-1" d="M209,53.07c-9,.13-17.92.41-26.92.41s-17.93-.28-27-.41V48.42c0-11.43.52-23,1-34.43a34.82,34.82,0,0,1-6.31.67,34.93,34.93,0,0,1-6.32-.67c.52,11.44,1,23,1,34.43V71.27c0,11.44-.52,23-1,34.43a30.54,30.54,0,0,1,12.63,0c-.52-11.43-1-23-1-34.43V59.32c9-.14,17.92-.28,27-.28s17.89.14,26.92.28V71.27c0,11.44-.51,23-1,34.43a30.54,30.54,0,0,1,12.63,0c-.51-11.43-1-23-1-34.43V48.42c0-11.43.52-23,1-34.43a35.09,35.09,0,0,1-6.3.67,35.22,35.22,0,0,1-6.33-.67c.52,11.44,1,23,1,34.43v4.65Z"/><path class="cls-1" d="M249.13,71.14c0,11.44-.53,23-1,34.56,7.85-.41,15.58-.66,23.43-.66s15.61.25,23.23.66a18.13,18.13,0,0,1-.39-3.86,20.27,20.27,0,0,1,.39-4.1c-8.13,1.58-23.34,1.71-34.8,1.71-.15-3.32-.27-9.84-.27-19.94,0-12.75,0-16.07.12-19.27,6.2,0,22.45.27,31.33,1.21a21.58,21.58,0,0,1-.39-4,23.09,23.09,0,0,1,.39-4.13c-7.61.67-16.13,1.33-31.33,1.33,0-3.31-.12-10.63-.12-17.54,0-6.51.39-11.16.52-16.88,16.75,0,23.08.93,33.9,1.75a21.94,21.94,0,0,1-.39-4,21.68,21.68,0,0,1,.39-4c-7.62.4-15.21.67-22.94.67s-15.34-.27-23.07-.67c.5,11.3,1,22.89,1,34.29V71.14Z"/><path class="cls-1" d="M360.07,66.09c0,13.18-.63,26.53-1.2,39.7a35.76,35.76,0,0,1,14.57,0c-.6-13.17-1.18-26.52-1.18-39.7v-13c12.77,0,28.39.15,38.36,1.22a22.46,22.46,0,0,1-.59-4.58,22.56,22.56,0,0,1,.59-4.61C398.27,46.3,385,46.6,372.26,46.6c0-6.43-.16-12.25-.16-19.31,0-6.43.16-12.88.29-20.09,9.67,0,30.78.92,41.49,2a24.5,24.5,0,0,1-.44-4.58A24.74,24.74,0,0,1,413.88,0c-10.71.45-19.48.76-28.41.76S367.77.45,358.87,0c.57,13.18,1.2,26.52,1.2,39.7V66.09Z"/><path class="cls-1" d="M504.65,57.19c0,16.76,0,44-28.2,44-28.75,0-28.75-23.51-28.75-41.59,0-19.66.78-37.73,1.55-45.59a25.3,25.3,0,0,1-5.54.67A38.27,38.27,0,0,1,437,14c.27,7.73.78,19.81.78,34.43,0,6.64-.63,12.75-.63,21,0,25.78,11.34,38,36.85,38,23.19,0,36.48-14.75,36.72-38.27C511,49.74,512,26.37,513,14a12.31,12.31,0,0,1-3.86.67,22.93,22.93,0,0,1-5.28-.67c.76,5.19.76,18,.76,43.2Z"/><path class="cls-1" d="M542.12,71.27c0,11.44-.53,23-1,34.43,8-.41,15.85-.66,23.84-.66s15.86.25,23.72.66a14.6,14.6,0,0,1-.65-4,14.32,14.32,0,0,1,.65-4c-12.88,1.71-23.46,1.71-35.57,1.71-.12-13-.39-28.71-.39-51,0-11.43.52-23,1-34.43a35.29,35.29,0,0,1-6.31.67,35.13,35.13,0,0,1-6.33-.67c.51,11.44,1,23,1,34.43V71.27Z"/><path class="cls-1" d="M610.94,71.27c0,11.44-.53,23-1,34.43,8-.41,15.86-.66,23.85-.66s15.85.25,23.71.66a14.2,14.2,0,0,1-.63-4,13.93,13.93,0,0,1,.63-4c-12.89,1.71-23.46,1.71-35.56,1.71-.14-13-.4-28.71-.4-51,0-11.43.53-23,1-34.43a35.22,35.22,0,0,1-6.33.67A35.1,35.1,0,0,1,609.9,14c.51,11.44,1,23,1,34.43V71.27Z"/><path class="cls-1" d="M679.76,71.14c0,11.44-.52,23-1,34.56,7.85-.41,15.6-.66,23.46-.66s15.58.25,23.18.66a20.26,20.26,0,0,1-.37-3.86,22.65,22.65,0,0,1,.37-4.1c-8.12,1.58-23.32,1.71-34.79,1.71-.13-3.32-.25-9.84-.25-19.94,0-12.75,0-16.07.12-19.27,6.19,0,22.42.27,31.33,1.21a20.75,20.75,0,0,1-.39-4,22.21,22.21,0,0,1,.39-4.13c-7.62.67-16.11,1.33-31.33,1.33,0-3.31-.12-10.63-.12-17.54,0-6.51.37-11.16.51-16.88,16.74,0,23.07.93,33.89,1.75a21,21,0,0,1-.37-4,20.82,20.82,0,0,1,.37-4c-7.6.4-15.22.67-22.93.67s-15.35-.27-23.07-.67c.51,11.3,1,22.89,1,34.29V71.14Z"/><path class="cls-2" d="M759.14,48.42c0-9.57.39-19.12.78-28.84a117.63,117.63,0,0,1,12.48-.65c8.79,0,20,3.45,20,17.4,0,15.8-14,20.32-24.61,20.32a41,41,0,0,1-8.63-.66V48.42ZM748.58,71.27c0,11.44-.53,23-1,34.43a33.8,33.8,0,0,1,6.29-.66,34.39,34.39,0,0,1,6.33.66c-.53-11.43-1-23-1-34.43v-9.7H764c11.09,11.57,28.23,36,33.39,44.13a45.85,45.85,0,0,1,7.46-.66,49.67,49.67,0,0,1,7.76.66c-7.48-8.63-29-37.21-35.3-45.31C787.1,59,803.72,52.13,803.72,35c0-15.82-12.23-21-26.8-21-4.9,0-9.79.67-14.69.67s-9.79-.27-14.67-.67c.49,11.44,1,23,1,34.43V71.27Z"/><path class="cls-1" d="M847.24,71.27c0,11.44-.51,23-1,34.43a30.49,30.49,0,0,1,12.62,0c-.51-11.43-1-23-1-34.43V48.42q0-13.74.38-27.51a249.78,249.78,0,0,1,27.59,1.47,15.25,15.25,0,0,1-.64-4.14,16.28,16.28,0,0,1,.64-4.25c-11.09.4-22.18.67-33.26.67s-22.17-.27-33.26-.67a16.18,16.18,0,0,1,.64,4.13,15.4,15.4,0,0,1-.64,4.26,249.59,249.59,0,0,1,27.58-1.47q.4,13.76.39,27.51V71.27Z"/><path class="cls-2" d="M977.24,59.84c0,29.51-15.47,42.66-35.69,42.66S906,89.35,906,59.84s15.47-42.65,35.58-42.65,35.69,13.16,35.69,42.65Zm-83.89,0c0,30.17,19.85,47.58,48.2,47.58S989.88,90,989.88,59.84,970,12.28,941.55,12.28s-48.2,17.41-48.2,47.56Z"/><path class="cls-1" d="M1086.63,107.42c-.13-6-.39-35.35-.39-48.9,0-10.35,1.29-36.67,2-44.53a14.72,14.72,0,0,1-4.12.67,16.55,16.55,0,0,1-4.37-.67c1,20.48,1,46.4,1,70.17-15.7-16.35-44.2-48.38-65.19-71.88h-2.07c.39,6,.39,18.85.39,35.61,0,17.54-1.68,51.56-2.72,57.81A20,20,0,0,1,1016,105a16.39,16.39,0,0,1,4.51.66c-.64-5.33-1.15-33.36-1.15-44.79,0-14.09.25-22.06.37-27,22,24.2,45.51,49.7,65.1,73.49Z"/><rect class="cls-1" y="174.82" width="1133.86" height="4.9"/><path class="cls-1" d="M53.74,248.89v18.65h23V248.89H85.3V293.2H76.73V274.49h-23V293.2H45.17V248.89Z"/><path class="cls-1" d="M137.26,248.32a26.67,26.67,0,0,1,12.39,2.84,22.38,22.38,0,0,1,.09,39.68,27.94,27.94,0,0,1-25.05,0,21.94,21.94,0,0,1-11.91-19.73,22.24,22.24,0,0,1,3.14-11.45,21.8,21.8,0,0,1,8.66-8.32A26.33,26.33,0,0,1,137.26,248.32Zm-15.63,22.74a15.78,15.78,0,0,0,2,7.93,13.93,13.93,0,0,0,5.57,5.46,16.66,16.66,0,0,0,8.07,1.93,15.35,15.35,0,0,0,11.21-4.28,14.73,14.73,0,0,0,4.4-11,16,16,0,0,0-2-7.94,13.76,13.76,0,0,0-5.59-5.47,17.84,17.84,0,0,0-16.2,0,13.49,13.49,0,0,0-5.54,5.46A16.15,16.15,0,0,0,121.63,271.06Z"/><path class="cls-1" d="M223.36,248.89v6.7H207.63V293.2h-8.57V255.59H183.33v-6.7Z"/><path class="cls-1" d="M278,248.89v6.7H257.91v11.64h19.22v6.69H257.91v12.59h20.52v6.69H249.35V248.89Z"/><path class="cls-1" d="M314.48,248.89v37.62H336v6.69H305.91V248.89Z"/><path class="cls-1" d="M374.18,248.32a25.89,25.89,0,0,1,12.47,3.24v7.61Q379.77,255,374.44,255a8.79,8.79,0,0,0-5.06,1.25,3.86,3.86,0,0,0-1.83,3.34c0,1.68,1.14,3.22,3.4,4.64q.94.63,7.32,3.55,5.46,2.56,7.87,5.71a12,12,0,0,1,2.41,7.55,11.53,11.53,0,0,1-4.11,9.21q-4.1,3.51-10.64,3.51a25.3,25.3,0,0,1-7.31-.94,31.73,31.73,0,0,1-6.87-3.22v-8.44q7.11,5.91,13.39,5.9a8.61,8.61,0,0,0,5.07-1.36A4.24,4.24,0,0,0,380,282.1q0-3.08-3.36-5-2.79-1.51-7.2-3.65a21,21,0,0,1-7.82-5.55,11.31,11.31,0,0,1-2.59-7.36,10.79,10.79,0,0,1,4.16-8.89Q367.37,248.33,374.18,248.32Z"/><path class="cls-1" d="M471.61,248.89l19.57,44.31h-9l-4.59-10.78h-19.7l-4.28,10.78h-9l18.27-44.31Zm-11.16,27h14.3l-7.48-17.54Z"/><path class="cls-1" d="M523.39,248.89l26.33,30.93V248.89h8.37V293.2h-7.36l-26.48-31.43V293.2h-8.38V248.89Z"/><path class="cls-1" d="M605.87,248.89a26.19,26.19,0,0,1,12.31,2.83,20.46,20.46,0,0,1,8.37,7.93,22.31,22.31,0,0,1,3,11.48,22.07,22.07,0,0,1-3,11.53,20.07,20.07,0,0,1-8.51,7.78,27.94,27.94,0,0,1-12.66,2.76h-18V248.89ZM605,286.51q7.11,0,11.4-4.26a15.07,15.07,0,0,0,4.3-11.19q0-7.15-4.33-11.32t-11.65-4.15h-8.82v30.92Z"/><path class="cls-1" d="M710.5,248.89a14.86,14.86,0,0,1,10.18,3.46,11.45,11.45,0,0,1,3.94,9,11.24,11.24,0,0,1-2,6.58,13,13,0,0,1-5.78,4.43,12.89,12.89,0,0,1,3.77,3.1,40.24,40.24,0,0,1,4.09,6.63q4.07,8.06,6,11.1h-9.55q-1-1.45-2.66-4.66a104.63,104.63,0,0,0-5.39-9.53,13.18,13.18,0,0,0-3.3-3.49,6.54,6.54,0,0,0-3.65-1h-3.11V293.2h-8.56V248.89Zm-1.93,18.91a7.75,7.75,0,0,0,5.28-1.68,5.81,5.81,0,0,0,1.92-4.6,5.44,5.44,0,0,0-1.91-4.55,8.51,8.51,0,0,0-5.42-1.51h-5.33V267.8Z"/><path class="cls-1" d="M784.51,248.89v6.7H764.43v11.64h19.22v6.69H764.43v12.59H785v6.69H755.87V248.89Z"/><path class="cls-1" d="M825.28,248.32a25.89,25.89,0,0,1,12.47,3.24v7.61Q830.87,255,825.54,255a8.79,8.79,0,0,0-5.06,1.25,3.86,3.86,0,0,0-1.83,3.34c0,1.68,1.13,3.22,3.4,4.64q.94.63,7.32,3.55,5.46,2.56,7.87,5.71a12,12,0,0,1,2.41,7.55,11.53,11.53,0,0,1-4.11,9.21,15.8,15.8,0,0,1-10.64,3.51,25.3,25.3,0,0,1-7.31-.94,31.73,31.73,0,0,1-6.87-3.22v-8.44q7.11,5.91,13.39,5.9a8.61,8.61,0,0,0,5.07-1.36,4.24,4.24,0,0,0,1.94-3.62q0-3.08-3.36-5-2.81-1.51-7.2-3.65a21,21,0,0,1-7.82-5.55,11.25,11.25,0,0,1-2.59-7.36,10.79,10.79,0,0,1,4.16-8.89Q818.47,248.33,825.28,248.32Z"/><path class="cls-1" d="M889.33,248.32a26.67,26.67,0,0,1,12.39,2.84,22.38,22.38,0,0,1,.09,39.68,27.94,27.94,0,0,1-25,0,21.94,21.94,0,0,1-11.91-19.73A22.24,22.24,0,0,1,868,259.61a21.8,21.8,0,0,1,8.66-8.32A26.33,26.33,0,0,1,889.33,248.32ZM873.7,271.06a15.78,15.78,0,0,0,2,7.93,13.93,13.93,0,0,0,5.57,5.46,16.66,16.66,0,0,0,8.07,1.93,15.39,15.39,0,0,0,11.22-4.28,14.76,14.76,0,0,0,4.39-11,16,16,0,0,0-2-7.94,13.76,13.76,0,0,0-5.59-5.47,17.84,17.84,0,0,0-16.2,0,13.55,13.55,0,0,0-5.54,5.46A16.15,16.15,0,0,0,873.7,271.06Z"/><path class="cls-1" d="M957.22,248.89a14.86,14.86,0,0,1,10.18,3.46,11.42,11.42,0,0,1,3.94,9,11.23,11.23,0,0,1-2,6.58,12.94,12.94,0,0,1-5.79,4.43,12.89,12.89,0,0,1,3.77,3.1,39.56,39.56,0,0,1,4.09,6.63q4.06,8.06,6,11.1h-9.55q-1-1.45-2.66-4.66a102.19,102.19,0,0,0-5.39-9.53,13.18,13.18,0,0,0-3.3-3.49,6.54,6.54,0,0,0-3.65-1h-3.11V293.2h-8.56V248.89Zm-1.93,18.91a7.75,7.75,0,0,0,5.28-1.68,5.81,5.81,0,0,0,1.92-4.6,5.44,5.44,0,0,0-1.91-4.55,8.49,8.49,0,0,0-5.42-1.51h-5.33V267.8Z"/><path class="cls-1" d="M1036.12,248.89v6.7h-15.73V293.2h-8.57V255.59H996.09v-6.7Z"/><path class="cls-1" d="M1074.32,248.32a25.85,25.85,0,0,1,12.46,3.24v7.61q-6.88-4.16-12.21-4.15a8.83,8.83,0,0,0-5.06,1.25,3.87,3.87,0,0,0-1.82,3.34c0,1.68,1.13,3.22,3.39,4.64q1,.63,7.33,3.55,5.46,2.56,7.87,5.71a12.07,12.07,0,0,1,2.41,7.55,11.53,11.53,0,0,1-4.11,9.21,15.82,15.82,0,0,1-10.64,3.51,25.26,25.26,0,0,1-7.31-.94,31.73,31.73,0,0,1-6.87-3.22v-8.44q7.11,5.91,13.38,5.9a8.62,8.62,0,0,0,5.08-1.36,4.23,4.23,0,0,0,1.93-3.62q0-3.08-3.36-5-2.79-1.51-7.2-3.65a21.12,21.12,0,0,1-7.82-5.55,11.3,11.3,0,0,1-2.58-7.36,10.78,10.78,0,0,1,4.15-8.89Q1067.49,248.33,1074.32,248.32Z"/></g></g></svg>